# xmcd
#
# Track frame offsets: 
#        150
#        13447
#        31912
#        41877
#        50667
#        63745
#        76432
#        91409
#        104092
#        117128
#        131731
#        142729
#        157511
#        167896
#        179684
#        192507
#        205278
#        227788
#
# Disc length: 3260 seconds
#
# Revision: 0
# Processed by: cddbd v1.4PL0 Copyright (c) Steve Scherf et al.
# Submitted via: ExactAudioCopy v0.90a11
#
DISCID=070cba12
DTITLE=Fleetwood Mac - The Blues Years, Disc 1
DYEAR=1900
DGENRE=
TTITLE0=My Heart Beat Like A Hammer
TTITLE1=Merry Go Round
TTITLE2=Long Grey Mare
TTITLE3=Hellhound On My Trail
TTITLE4=Shake Your Moneymaker
TTITLE5=Looking For Somebody
TTITLE6=No Place To Go
TTITLE7=My Baby's Good To Me
TTITLE8=I Loved Another Woman
TTITLE9=Cold Black Night
TTITLE10=The World Keep On Turning
TTITLE11=Got To Move
TTITLE12=Stop Messin' Round
TTITLE13=Coming Home
TTITLE14=Rollin' Man
TTITLE15=Dust My Broom
TTITLE16=Love That Burns
TTITLE17=Doctor Brown
EXTD=
EXTT0=
EXTT1=
EXTT2=
EXTT3=
EXTT4=
EXTT5=
EXTT6=
EXTT7=
EXTT8=
EXTT9=
EXTT10=
EXTT11=
EXTT12=
EXTT13=
EXTT14=
EXTT15=
EXTT16=
EXTT17=
PLAYORDER=
